<svg xmlns="http://www.w3.org/2000/svg" xmlns:xlink="http://www.w3.org/1999/xlink" viewBox="0 0 2407.86 1577.09"><defs><style>.cls-1{stroke-miterlimit:10;fill:url(#radial-gradient);stroke:url(#radial-gradient-2);}.cls-2{fill:#8976bf;}.cls-3{fill:#b79dff;}.cls-4{fill:#e0c5c7;}.cls-5{fill:#f0e2e3;}.cls-6{fill:#bfad50;}.cls-7{fill:#ffe76a;}.cls-8{fill:#fff;}</style><radialGradient id="radial-gradient" cx="1114.02" cy="729.49" r="1017.17" gradientTransform="translate(89.91 7.31) scale(1 1.07)" gradientUnits="userSpaceOnUse"><stop offset="0.37" stop-color="#242021"/><stop offset="0.38" stop-color="#211d1e"/><stop offset="0.49" stop-color="#0f0d0d"/><stop offset="0.6" stop-color="#040303"/><stop offset="0.73"/></radialGradient><radialGradient id="radial-gradient-2" cx="1203.93" cy="788.54" r="1017.66" gradientUnits="userSpaceOnUse"><stop offset="0" stop-color="#fff"/><stop offset="1"/></radialGradient></defs><g id="Layer_1" data-name="Layer 1"><rect class="cls-1" x="0.5" y="0.5" width="2406.86" height="1576.09"/><g id="Layer_1-2" data-name="Layer_1"><g id="_1421394342400" data-name=" 1421394342400"><polygon class="cls-2" points="1202.1 312.59 1196.95 330.09 1196.95 837.9 1202.1 843.04 1437.82 703.71 1202.1 312.59"/><polygon class="cls-3" points="1202.1 312.59 966.38 703.71 1202.1 843.04 1202.1 596.57 1202.1 312.59"/><polygon class="cls-4" points="1202.1 887.67 1199.2 891.21 1199.2 1072.11 1202.1 1080.58 1437.96 748.41 1202.1 887.67"/><polygon class="cls-5" points="1202.1 1080.58 1202.1 887.67 966.38 748.41 1202.1 1080.58"/><polygon class="cls-6" points="1202.1 843.04 1437.82 703.71 1202.1 596.57 1202.1 843.04"/><polygon class="cls-7" points="966.38 703.71 1202.1 843.04 1202.1 596.57 966.38 703.71"/></g></g><polyline class="cls-2" points="1374.83 457.82 1202.1 312.59 1274.12 432.08 1374.83 457.82"/><path class="cls-3" d="M314.55,1278a2.47,2.47,0,0,1-2.8-2.8V1157a2.8,2.8,0,1,1,5.6,0v52.59H370V1157a2.8,2.8,0,1,1,5.6,0v118.2a2.8,2.8,0,0,1-5.6,0V1215.4h-52.6v59.81A2.47,2.47,0,0,1,314.55,1278Z" transform="translate(89.91 59.05)"/><path class="cls-3" d="M454.35,1209.8a29.61,29.61,0,0,1,23.1,10.5,36.53,36.53,0,0,1,0,48.7,29.71,29.71,0,0,1-23.1,10.4,29.41,29.41,0,0,1-23-10.4,36.82,36.82,0,0,1,0-48.7A29.31,29.31,0,0,1,454.35,1209.8Zm.1,63.8a24.23,24.23,0,0,0,19.07-8.77,30,30,0,0,0,7.63-20.33,29.66,29.66,0,0,0-7.63-20.23,25.31,25.31,0,0,0-38.14,0,29.66,29.66,0,0,0-7.63,20.23,30,30,0,0,0,7.63,20.33A24.21,24.21,0,0,0,454.45,1273.6Z" transform="translate(89.91 59.05)"/><path class="cls-3" d="M584.35,1211.6a2.48,2.48,0,0,1,2.8,2.81v61.38a2.8,2.8,0,1,1-5.6,0v-11.6q-7.8,15.81-23.2,15.8a22.9,22.9,0,0,1-19-9.23q-6.81-8.41-6.8-20.46v-35.9a2.8,2.8,0,1,1,5.6,0v35.8q0,9.81,5,16.4a17.88,17.88,0,0,0,15.2,7.6q23.19,0,23.2-37v-22.8A2.48,2.48,0,0,1,584.35,1211.6Z" transform="translate(89.91 59.05)"/><path class="cls-3" d="M640,1227.37q0,7,12.4,10.17l23.2,5.58q12.6,5,12.6,16,0,9.77-9,15.75a32.72,32.72,0,0,1-18,5q-11.4,0-18.8-4.4-8.8-5.6-8.8-16.2c0-3.06,1.13-4.6,3.4-4.6,1.46,0,2.2,1.06,2.2,3.17q0,16.23,22,16.23a28,28,0,0,0,14-3.39q7.4-4.38,7.4-11.76,0-8.37-12.6-12l-23.2-5.59q-12.4-4.18-12.4-14,0-9,8.8-13.36,6.79-3.39,16.8-3.39,11,0,18,4.2,8.59,5.21,8.6,15.4c0,1.74-1,2.6-3,2.6-1.6,0-2.47-1-2.6-3a13.33,13.33,0,0,0-3.2-7.91q-4.8-5.52-17.8-5.53Q639.94,1216.4,640,1227.37Z" transform="translate(89.91 59.05)"/><path class="cls-3" d="M765.94,1210a29.67,29.67,0,0,1,23.1,10.46,35.72,35.72,0,0,1,9.3,24.53c0,1.87-1,2.81-3,2.81h-56a29.66,29.66,0,0,0,8.43,18.32,24.2,24.2,0,0,0,18.07,7.68q14.65,0,23.08-11.62a2.94,2.94,0,0,1,2.41-1.38,2.48,2.48,0,0,1,2.81,2.8,2.42,2.42,0,0,1-.4,1.4q-8.4,14.61-27.8,14.6a29.5,29.5,0,0,1-22.9-10.4,36.81,36.81,0,0,1-.1-48.8A29.44,29.44,0,0,1,765.94,1210Zm-26.6,32h53a30,30,0,0,0-8.43-18.46,25,25,0,0,0-36.14,0A30,30,0,0,0,739.34,1242Z" transform="translate(89.91 59.05)"/><path class="cls-3" d="M955.54,1209.8a29.61,29.61,0,0,1,23.1,10.5,36.53,36.53,0,0,1,0,48.7,29.71,29.71,0,0,1-23.1,10.4,29.41,29.41,0,0,1-23-10.4,36.82,36.82,0,0,1,0-48.7A29.31,29.31,0,0,1,955.54,1209.8Zm.1,63.8a24.23,24.23,0,0,0,19.07-8.77,30,30,0,0,0,7.63-20.33,29.66,29.66,0,0,0-7.63-20.23,25.31,25.31,0,0,0-38.14,0,29.66,29.66,0,0,0-7.63,20.23,30,30,0,0,0,7.63,20.33A24.21,24.21,0,0,0,955.64,1273.6Z" transform="translate(89.91 59.05)"/><path class="cls-3" d="M1070.74,1211.5c0,1.94-.93,2.9-2.8,2.9h-20.2v61.4a2.8,2.8,0,0,1-5.6,0v-61.4h-12.8c-1.87,0-2.8-1-2.8-2.9s.93-2.9,2.8-2.9h12.8V1176q0-10,6-15.4t16.2-5.4a30.07,30.07,0,0,1,12.6,3.3q7,3.3,9.6,7.7a3.61,3.61,0,0,1,.6,1.8,2.47,2.47,0,0,1-2.8,2.8q-12.79-9.79-19.8-9.8-16.8,0-16.8,13.94v33.66h20.2C1069.81,1208.6,1070.74,1209.57,1070.74,1211.5Z" transform="translate(89.91 59.05)"/><path class="cls-3" d="M1351.72,1154.6a2.49,2.49,0,0,1,2.82,2.8q0,.4-34.2,121.6c-.27,1.33-1.19,2-2.79,2a2.63,2.63,0,0,1-2.79-2l-31.42-111.49L1251.91,1279a2.94,2.94,0,0,1-5.57,0q-34.2-121.2-34.2-121.6a2.49,2.49,0,0,1,2.82-2.8,2.68,2.68,0,0,1,2.82,2.19l31.35,111.45,31.41-111.44a2.68,2.68,0,0,1,2.8-2.2,2.64,2.64,0,0,1,2.8,2l31.41,111.63,31.55-111.44A2.57,2.57,0,0,1,1351.72,1154.6Z" transform="translate(89.91 59.05)"/><path class="cls-3" d="M1410.34,1192.2c0,2.94-1.54,4.4-4.6,4.4s-4.6-1.46-4.6-4.4,1.53-4.6,4.6-4.6S1410.34,1189.14,1410.34,1192.2Zm-4.6,19.4a2.48,2.48,0,0,1,2.8,2.81v61a2.8,2.8,0,1,1-5.6,0v-61A2.48,2.48,0,0,1,1405.74,1211.6Z" transform="translate(89.91 59.05)"/><path class="cls-3" d="M1510.94,1216.19a2.51,2.51,0,0,1-.8,1.8l-44.4,52.61h40.2c1.86,0,2.8,1,2.8,2.9s-.94,2.9-2.8,2.9h-46.2c-1.87,0-2.8-1-2.8-2.84a2.81,2.81,0,0,1,.51-1.83l44.34-52.53h-40.06c-1.87,0-2.79-1-2.79-2.9s.93-2.9,2.8-2.9h46.4A2.47,2.47,0,0,1,1510.94,1216.19Z" transform="translate(89.91 59.05)"/><path class="cls-3" d="M1616.94,1211.2a2.48,2.48,0,0,1,2.8,2.8v61a2.8,2.8,0,0,1-5.6,0v-12.8q-9.41,17.4-28,17.4a29.41,29.41,0,0,1-23-10.4,37,37,0,0,1,0-48.8,29.44,29.44,0,0,1,23-10.4q18.6,0,28,17.4V1214A2.48,2.48,0,0,1,1616.94,1211.2Zm-30.8,62.6a24.14,24.14,0,0,0,19-8.74,30.8,30.8,0,0,0,0-40.52,25,25,0,0,0-38,0,30.8,30.8,0,0,0,0,40.52A24.12,24.12,0,0,0,1586.14,1273.8Z" transform="translate(89.91 59.05)"/><path class="cls-3" d="M1696.13,1211.6c2,0,3,.87,3,2.59a2.74,2.74,0,0,1-2.59,3q-11.8,1.59-18,10.76-5.8,8.17-5.8,20.54v26.72a2.81,2.81,0,0,1-5.61,0v-60.82a2.47,2.47,0,0,1,2.8-2.79c1.87,0,2.81.92,2.81,2.76v12.24a33.57,33.57,0,0,1,9.8-10.46A24.37,24.37,0,0,1,1696.13,1211.6Z" transform="translate(89.91 59.05)"/><path class="cls-3" d="M1799.54,1155.4a2.48,2.48,0,0,1,2.8,2.8v117a2.8,2.8,0,0,1-5.6,0v-12.8q-9.4,17.4-28,17.4a29.5,29.5,0,0,1-22.9-10.4,36.68,36.68,0,0,1-.1-48.7,29.31,29.31,0,0,1,23-10.5q18.6,0,28,17.6v-69.6A2.48,2.48,0,0,1,1799.54,1155.4Zm-30.8,118.6a24.14,24.14,0,0,0,19-8.74,30.8,30.8,0,0,0,0-40.52,25,25,0,0,0-38,0,30.8,30.8,0,0,0,0,40.52A24.12,24.12,0,0,0,1768.74,1274Z" transform="translate(89.91 59.05)"/><path class="cls-3" d="M1855.13,1227.37q0,7,12.4,10.17l23.2,5.58q12.6,5,12.61,16,0,9.77-9,15.75a32.77,32.77,0,0,1-18,5q-11.41,0-18.81-4.4-8.79-5.6-8.8-16.2c0-3.06,1.14-4.6,3.4-4.6,1.47,0,2.21,1.06,2.21,3.17q0,16.23,22,16.23a28,28,0,0,0,14-3.39q7.4-4.38,7.39-11.76,0-8.37-12.6-12l-23.2-5.59q-12.39-4.18-12.4-14,0-9,8.81-13.36,6.79-3.39,16.79-3.39,11,0,18,4.2,8.61,5.21,8.6,15.4c0,1.74-1,2.6-3,2.6-1.6,0-2.46-1-2.6-3a13.21,13.21,0,0,0-3.2-7.91q-4.8-5.52-17.8-5.53Q1855.13,1216.4,1855.13,1227.37Z" transform="translate(89.91 59.05)"/></g><g id="Layer_2" data-name="Layer 2"><polyline class="cls-8" points="1152.5 668.28 1059.58 661.35 1137.97 625.71 1152.5 668.28"/><path class="cls-8" d="M912.26,395.6" transform="translate(89.91 59.05)"/><polyline class="cls-8" points="1249.74 667.49 1342.66 660.55 1264.27 624.92 1249.74 667.49"/></g></svg>